<svg id="Layer_1" xmlns="http://www.w3.org/2000/svg" version="1.1" viewBox="0 0 566.9 595.3" height="32" width="30"><defs><style>.st0{fill:#fff}</style></defs><path d="M459.1 569.1h-430v-543h508.7v464.3c0 43.5-35.2 78.7-78.7 78.7" style="fill:#00609c"/><path class="st0" d="M459.1 572.4H25.9V22.9h515.2v467.6c0 21.9-8.5 42.5-24 57.9-15.5 15.5-36.1 24-57.9 24Zm-426.8-6.5h426.8c20.1 0 39.1-7.8 53.3-22.1 14.2-14.2 22.1-33.2 22.1-53.4v-461H32.3v536.5Z"/><path class="st0" d="m295.4 92.3 129.3 126.9c7.2 7.1 7.2 18.7 0 25.8L295.5 371.9v-71l60.7-59.9c5-4.9 5-13 0-18l-60.8-60.1V92.1Zm-23.9 0L142.2 219.2c-7.2 7.1-7.2 18.7 0 25.8l129.2 126.9v-71L210.7 241c-5-4.9-5-13 0-18l60.8-60.1V92.1ZM219 418.2l28.6 84.5h-18l-5.7-17.5h-33.6l-5.9 17.5h-18l26.4-78c1.3-3.9 4.9-6.4 9-6.4h17.1Zm.7 53.1L207 431.4l-12.4 39.9h25Zm84.8-12.6c6.9-2.8 10.1-6.7 10.1-13.7v-8.8c0-11.4-6.9-18-24.1-18h-35.7v84.5h38.1c16.5 0 24.8-7.5 24.8-19.4v-9c0-8.2-4.9-13.9-13.2-15.6M272 431.4h16.5c6.3 0 9 2.2 9 6.8v7.5c0 4.9-2.5 7.9-9.1 7.9h-16.3v-22.2Zm28.6 49.8c0 6.2-3.3 8.2-11 8.2H272v-23.1h19.1c6.8 0 9.5 2.8 9.5 8.5v6.3Zm-165.3-51.1h24.6V424c0-4.6-3.7-8.4-8.4-8.4h-16.3c-22 .2-31.5 9.2-31.5 24.5v38c0 15.3 9.5 24.2 31.5 24.5h23.7v-6.1c0-4.6-3.7-8.4-8.4-8.4h-15.3c-10.8-.4-14.3-4.2-14.3-12.8v-32.5c0-8.6 3.6-12.5 14.3-12.8m290.6 58.6V417h-7.7c-5.2 0-9.5 4.3-9.5 9.5v76.2H463v-14.1h-37.3ZM374 418.2l28.6 84.5h-18l-5.7-17.5h-33.6l-5.9 17.5h-18l25.6-75.6c1.8-5.3 6.7-8.8 12.3-8.8h14.6Zm.7 53.1L362 431.4l-12.4 39.9h25Z"/></svg>