<svg id="Capa_2" data-name="Capa 2" xmlns="http://www.w3.org/2000/svg" viewBox="0 0 227.32 204.69" height="36" width="39"><defs><style>.cls-1{fill:#e95316}.cls-2{fill:#4b2776}</style></defs><g id="logo_elegido" data-name="logo elegido"><path class="cls-1" d="M105.18 0H83.94a2.48 2.48 0 0 0-2.48 2.48l.5 79.39a.5.5 0 0 1-.92.27L29.37 1.94A4.216 4.216 0 0 0 25.82 0H2.48A2.48 2.48 0 0 0 0 2.48v123.59a2.48 2.48 0 0 0 2.48 2.48h21.24a2.48 2.48 0 0 0 2.48-2.48V47.45c0-.49.65-.68.91-.27l51.17 79.43a4.216 4.216 0 0 0 3.55 1.94h23.34a2.48 2.48 0 0 0 2.48-2.48V2.48A2.48 2.48 0 0 0 105.17 0Zm42.72 2.19C147.06.88 145.49 0 143.93 0h-24.28c-1.96 0-3.14 2.17-2.08 3.82l38.77 59.91c.21.33.21.76 0 1.09l-38.78 59.92c-1.06 1.64.12 3.81 2.08 3.81h24.37c1.55 0 2.99-.78 3.83-2.09l37.86-58.8a6.276 6.276 0 0 0 0-6.79L147.9 2.19Z"/><path class="cls-2" d="M193.48 72.94a1 1 0 0 0-1.69 0l-12.66 19.65a6.276 6.276 0 0 0 0 6.79l17.17 26.66a5.488 5.488 0 0 0 4.61 2.52h23.86c1.96 0 3.14-2.17 2.08-3.82l-33.37-51.8Zm33.7 53.3ZM196.3 2.52l-17.18 26.66a6.276 6.276 0 0 0 0 6.79l12.66 19.66a.99.99 0 0 0 1.67 0l33.44-51.89c1.04-1.61-.12-3.74-2.04-3.74h-23.94c-1.86 0-3.6.95-4.61 2.52Z"/><path class="cls-1" d="M32.26 151.77h-6.51a.76.76 0 0 0-.76.76l.15 24.34c0 .15-.2.21-.28.08L9.02 152.36c-.24-.37-.65-.59-1.09-.59H.78a.76.76 0 0 0-.76.76v37.89c0 .42.34.76.76.76h6.51c.42 0 .76-.34.76-.76v-24.1c0-.15.2-.21.28-.08l15.69 24.35c.24.37.65.59 1.09.59h7.16c.42 0 .76-.34.76-.76v-37.89a.76.76 0 0 0-.76-.76Zm109.38 15.18c-2-2.52-5.23-3.79-8.73-3.79-.66 0-1.67.13-2.41.35-.75.23-1.9.86-2.58 1.52-.1.1-.26.02-.26-.11v-.49a.76.76 0 0 0-.76-.76h-6.43a.76.76 0 0 0-.76.76v25.99c0 .42.34.76.76.76h6.43c.42 0 .76-.34.76-.76l.02-16c0-2.47 2.03-3.93 4.35-3.93 2.8 0 4.23 1.99 4.37 4.19v15.74c0 .42.34.76.76.76h6.43c.42 0 .76-.34.76-.76v-13.46c0-4.6-.82-7.62-2.72-10.01Zm-27.01-3.28h-6.41a.77.77 0 0 0-.77.77v.47c0 .13-.15.2-.25.13a10.284 10.284 0 0 0-5.93-1.93c-3.56 0-6.73 1.22-9.42 3.61-3.13 2.8-4.71 6.39-4.71 10.69 0 3.72 1.23 6.96 3.64 9.64 2.8 3.12 6.33 4.71 10.49 4.71 2.07 0 4.06-.66 5.94-1.8.11-.06.24 0 .24.13v.33c0 .42.34.77.77.77h6.41c.42 0 .77-.34.77-.77v-25.98a.77.77 0 0 0-.77-.77Zm-13.25 20.73c-1.72 0-3.15-.59-4.35-1.8-1.23-1.23-1.85-2.98-1.85-5.2 0-1.9.46-3.45 1.37-4.61 1.23-1.56 2.78-2.33 4.72-2.33s3.3.57 4.43 1.76c1.22 1.27 1.83 3 1.83 5.15 0 1.9-.46 3.48-1.35 4.68-1.2 1.58-2.77 2.34-4.8 2.34Zm-36.95-20.73h-6.41a.77.77 0 0 0-.77.77v.47c0 .13-.15.2-.25.13a10.284 10.284 0 0 0-5.93-1.93c-3.56 0-6.73 1.22-9.42 3.61-3.13 2.8-4.71 6.39-4.71 10.69 0 3.72 1.23 6.96 3.64 9.64 2.8 3.12 6.33 4.71 10.49 4.71 2.07 0 4.06-.66 5.94-1.8.11-.06.24 0 .24.13v.33c0 .42.34.77.77.77h6.41c.42 0 .77-.34.77-.77v-25.98a.77.77 0 0 0-.77-.77ZM51.18 184.4c-1.72 0-3.15-.59-4.35-1.8-1.23-1.23-1.85-2.98-1.85-5.2 0-1.9.46-3.45 1.37-4.61 1.23-1.56 2.78-2.33 4.72-2.33s3.3.57 4.43 1.76c1.22 1.27 1.83 3 1.83 5.15 0 1.9-.46 3.48-1.35 4.68-1.2 1.58-2.77 2.34-4.8 2.34Zm136.32-20.73h-6.41a.77.77 0 0 0-.77.77v.47c0 .13-.15.2-.25.13a10.284 10.284 0 0 0-5.93-1.93c-3.56 0-6.73 1.22-9.42 3.61-3.13 2.8-4.71 6.39-4.71 10.69 0 3.72 1.23 6.96 3.64 9.64 2.8 3.12 6.33 4.71 10.49 4.71 2.07 0 4.06-.66 5.94-1.8.11-.06.24 0 .24.13v.33c0 .42.34.77.77.77h6.41c.42 0 .77-.34.77-.77v-25.98a.77.77 0 0 0-.77-.77Zm-13.25 20.73c-1.72 0-3.15-.59-4.35-1.8-1.23-1.23-1.85-2.98-1.85-5.2 0-1.9.46-3.45 1.37-4.61 1.23-1.56 2.78-2.33 4.72-2.33s3.3.57 4.43 1.76c1.22 1.27 1.83 3 1.83 5.15 0 1.9-.46 3.48-1.35 4.68-1.2 1.58-2.77 2.34-4.8 2.34ZM82.9 163.77c-1.43 0-3.1.65-4.07 1.42-.1.08-.25 0-.25-.12v-.64a.76.76 0 0 0-.76-.76h-6.43a.76.76 0 0 0-.76.76v25.99c0 .42.34.76.76.76h6.43c.42 0 .76-.34.76-.76V177.9c0-2.67.33-4.53.98-5.5.59-.87 1.74-1.3 3.4-1.3.45 0 1.18 0 2.28.11.43.04.79-.36.78-.79v-5.73c0-.39-.29-.71-.67-.76-.95-.11-1.77-.17-2.44-.17Zm73.56-10.59c-.95-.91-2.08-1.38-3.35-1.38s-2.47.45-3.44 1.35c-.94.91-1.42 2.04-1.42 3.34s.48 2.49 1.42 3.39c.92.92 2.06 1.39 3.39 1.39s2.46-.46 3.42-1.39c.92-.92 1.39-2.05 1.39-3.36s-.46-2.38-1.38-3.33l-.02-.02Z"/><path class="cls-1" d="M156.25 163.67h-6.43a.76.76 0 0 0-.76.76v27.3c-.03 1.14-.53 4.87-5.72 5.23-.4.03-.7.37-.7.77v6.21c.01.41.35.74.76.74h.05c1.29-.06 12.92-.95 13.54-12.18.02-.06.03-.12.03-.19v-27.88a.76.76 0 0 0-.76-.76Zm46.73-11.22a1.5 1.5 0 0 0-1.22-.67h-7.44c-.6 0-.96.67-.64 1.17l11.88 18.37c.07.1.07.23 0 .34l-11.89 18.37c-.33.5.04 1.17.64 1.17h7.47c.48 0 .92-.24 1.17-.64l11.61-18.02c.41-.63.41-1.45 0-2.08l-11.59-17.99Z"/><path class="cls-2" d="M216.95 174.13a.308.308 0 0 0-.52 0l-3.88 6.02c-.41.63-.41 1.45 0 2.08l5.26 8.17c.31.48.84.77 1.41.77h7.32c.6 0 .96-.67.64-1.17l-10.23-15.88Zm10.33 16.34Zm-9.46-37.92-5.27 8.17c-.41.63-.41 1.45 0 2.08l3.88 6.03a.3.3 0 0 0 .51 0l10.25-15.91c.32-.49-.04-1.15-.63-1.15h-7.34c-.57 0-1.1.29-1.41.77Z"/></g></svg>