<svg xmlns="http://www.w3.org/2000/svg" width="60" height="32" viewBox="0 0 75.101 40"><path fill="#E32213" d="M55.201 5.324a23.852 23.852 0 0 1-.734 18.53c-.043.103.088.192.227.103 4.379-2.867 8.197-8.366 9.455-12.859-4.359-2.233-6.984-4.537-8.568-6.018-.214-.204-.472.021-.38.244"/><path fill="#464142" d="M3.363 29.981c-1.246-.427-1.609-.633-1.609-1.164 0-.483.525-.848 1.221-.848.654 0 1.346.19 2.102.584a.07.07 0 0 0 .041.015.078.078 0 0 0 .047-.015.099.099 0 0 0 .049-.071l.203-1.294a.097.097 0 0 0-.055-.101 5.835 5.835 0 0 0-2.342-.479c-1.619 0-2.75.981-2.75 2.379 0 1.287.861 1.826 2.562 2.421 1.131.386 1.504.614 1.504 1.212 0 .601-.568.988-1.455.988-.734 0-1.732-.273-2.537-.694a.086.086 0 0 0-.086-.003.098.098 0 0 0-.051.07l-.205 1.27a.094.094 0 0 0 .059.099c.916.387 1.896.603 2.758.603 1.797 0 3.004-1.006 3.004-2.503-.001-1.355-.862-1.914-2.46-2.469m10.59-3.26h-1.426a.093.093 0 0 0-.094.092v4.821c0 1.291-.605 1.975-1.754 1.975-1.119 0-1.736-.712-1.736-2.008v-4.788a.091.091 0 0 0-.094-.092h-1.41a.092.092 0 0 0-.092.092v4.853C7.348 33.754 8.59 35 10.666 35c2.117 0 3.381-1.272 3.381-3.399v-4.788a.09.09 0 0 0-.094-.092m4.754 3.724h-.908v-2.349h.939c.689 0 1.506.206 1.506 1.174 0 .791-.5 1.175-1.537 1.175m.174-3.724h-2.584c-.053 0-.09.039-.09.092v7.936c0 .053.037.097.09.097h1.41c.053 0 .092-.044.092-.097v-2.944h.908c1.973 0 3.098-.934 3.098-2.565 0-1.555-1.117-2.519-2.924-2.519m9.629 6.701h-3.539v-2.087h2.926a.088.088 0 0 0 .07-.03c.02-.022.025-.05.02-.076l-.201-1.238c-.006-.045-.045-.077-.094-.077h-2.721v-1.771h3.426a.095.095 0 0 0 .096-.097v-1.233c0-.053-.043-.092-.096-.092h-4.93a.092.092 0 0 0-.094.092v7.936c0 .053.043.097.094.097h5.043c.049 0 .092-.044.092-.097v-1.233a.092.092 0 0 0-.092-.094m5.853-4.151c0 .787-.535 1.22-1.504 1.22h-.941V28.13h.941c.688-.001 1.504.197 1.504 1.141m-.008 2.285c1.035-.401 1.602-1.213 1.602-2.3 0-1.591-1.148-2.535-3.08-2.535h-2.461c-.053 0-.09.039-.09.092v7.936c0 .053.037.097.09.097h1.41c.055 0 .092-.044.092-.097v-2.973h.725l2.188 3.123c.02.025.047.037.078.037 0 0 .012 0 .018-.003l1.459-.328a.105.105 0 0 0 .066-.058.097.097 0 0 0-.014-.09l-2.083-2.901zm10.137-4.83h-1.42c-.043 0-.078.025-.088.062l-2.23 5.945-2.188-5.947c-.01-.038-.049-.063-.088-.063h-1.547c-.029.003-.049.022-.062.045a.095.095 0 0 0-.006.077l3.096 7.934a.09.09 0 0 0 .084.057h1.305a.089.089 0 0 0 .086-.057l3.146-7.923a.084.084 0 0 0-.01-.089.09.09 0 0 0-.078-.041m3.078-.005h-1.422c-.053 0-.098.039-.098.092v7.936c0 .053.045.097.098.097h1.422a.097.097 0 0 0 .096-.097v-7.936c0-.053-.043-.092-.096-.092m7.815 6.701h-3.539v-2.087h2.926a.103.103 0 0 0 .074-.03.1.1 0 0 0 .02-.076l-.206-1.239c-.004-.045-.045-.077-.09-.077h-2.725v-1.771h3.426a.094.094 0 0 0 .096-.097v-1.233c0-.053-.041-.092-.096-.092h-4.93a.092.092 0 0 0-.092.092v7.936c0 .053.043.097.092.097h5.043a.095.095 0 0 0 .092-.097v-1.233a.09.09 0 0 0-.091-.093m12.888.012h-2.914v-6.621a.091.091 0 0 0-.09-.092h-1.412a.092.092 0 0 0-.092.092v7.936c0 .053.043.097.092.097h4.619a.085.085 0 0 0 .07-.036.09.09 0 0 0 .021-.074l-.205-1.22a.09.09 0 0 0-.089-.082m6.737-.012h-3.541v-2.087h2.93a.106.106 0 0 0 .072-.03.116.116 0 0 0 .021-.076l-.207-1.238c-.006-.045-.043-.077-.094-.077h-2.723v-1.771H74.9a.095.095 0 0 0 .094-.097v-1.233a.092.092 0 0 0-.094-.092h-4.932a.09.09 0 0 0-.092.092v7.936c0 .053.039.097.092.097h5.041a.095.095 0 0 0 .092-.097v-1.233a.09.09 0 0 0-.091-.094"/><path fill="#8C173C" d="M74.924 14.585c-3.627-.572-7.16-1.76-9.461-2.854-1.33 3.492-3.904 7.234-6.596 9.81-.146.125-.031.345.211.176 5.75-3.98 11.74-5.889 15.854-6.685.224-.053.226-.384-.008-.447"/><path fill="#464142" d="M62.082 33.434H59.17v-6.621a.091.091 0 0 0-.094-.092h-1.41a.092.092 0 0 0-.092.092v7.936c0 .053.043.097.092.097h4.623c.023 0 .053-.012.066-.036a.092.092 0 0 0 .023-.074l-.205-1.22a.093.093 0 0 0-.091-.082"/></svg>